<svg xmlns:xlink="http://www.w3.org/1999/xlink" xmlns="http://www.w3.org/2000/svg" width="248" height="54" viewBox="0 0 248 54" fill="none">
<g clip-path="url(#clip0_222_6)">
<g clip-path="url(#clip1_222_6)">
<path fill-rule="evenodd" clip-rule="evenodd" d="M66.662 53.395V52.108L67.965 51.96C68.417 51.904 68.606 51.493 68.662 51.398L71.906 46.126C72.17 45.712 71.913 45.348 71.573 45.309L69.866 45.109V43.809H77.264C77.678 43.809 77.942 44.092 78.112 44.337L82.432 50.927C82.77 51.454 83.036 51.867 83.469 51.926L84.827 52.076V53.395H76.507V52.095L77.565 51.963C78.074 51.907 78.489 51.681 78.074 51.059L77.678 50.457H71.775L71.321 51.191C71.039 51.643 71.321 51.907 71.755 51.963L72.813 52.095V53.395H66.662ZM72.83 48.762H76.564L74.68 45.805L72.83 48.762ZM61.155 43.81H51.644L51.642 45.108L52.834 45.232C53.279 45.298 53.459 45.619 53.459 46.051V51.21C53.459 51.568 53.311 51.907 52.912 51.963L51.637 52.128V53.391L61.155 53.395C65.53 53.395 67.417 51.267 67.417 48.461C67.417 45.938 65.53 43.81 61.155 43.81ZM59.685 51.549H57.233V45.637H59.684C62.024 45.637 63.002 46.182 63.002 48.593C63.002 51.022 62.023 51.549 59.684 51.549M0 53.395H7.693V52.115L6.375 51.963C6.073 51.926 5.771 51.738 5.771 51.097V49.552H11.695V51.022C11.695 51.454 11.618 51.868 11.11 51.926L9.771 52.076V53.395H17.467V52.077L16.107 51.926C15.844 51.889 15.542 51.681 15.542 51.135V46.145C15.542 45.637 15.73 45.298 16.125 45.26L17.467 45.11V43.81H9.77V45.09L11.109 45.26C11.561 45.316 11.694 45.674 11.694 46.144V47.632H5.771V46.126C5.771 45.561 5.998 45.298 6.393 45.26L7.693 45.11V43.81H0.018V45.11L1.301 45.26C1.811 45.316 1.942 45.693 1.923 46.182V51.04C1.923 51.586 1.773 51.907 1.284 51.963L0 52.113V53.395ZM17.844 48.556C17.844 45.544 20.279 43.434 25.709 43.434C31.104 43.434 33.537 45.544 33.537 48.556C33.537 51.644 31.104 53.734 25.709 53.734C20.279 53.734 17.844 51.644 17.844 48.556ZM25.691 45.28C23.501 45.28 22.258 46.089 22.258 48.574C22.258 51.098 23.501 51.907 25.691 51.907C27.878 51.907 29.124 51.097 29.124 48.574C29.124 46.089 27.878 45.28 25.691 45.28ZM33.966 53.395H40.116V52.115L38.794 51.963C38.418 51.926 38.191 51.609 38.191 51.173V46.295L43.302 53.018C43.472 53.246 43.792 53.395 44.095 53.395H48.922V46.127C48.922 45.785 49.015 45.317 49.507 45.26L50.847 45.11V43.81H44.697V45.09L46.038 45.26C46.512 45.317 46.623 45.712 46.623 46.163V50.909L41.548 44.224C41.36 43.979 41.115 43.81 40.755 43.81H33.965V45.11L35.25 45.26C35.702 45.329 35.872 45.556 35.872 46.182V51.041C35.872 51.617 35.714 51.893 35.23 51.963L33.966 52.115V53.395ZM49.388 35.826L42.302 35.975L35.813 35.825L30.318 35.355C26.188 34.894 24.931 32.549 24.931 32.549C24.571 32.106 24.263 31.496 23.979 30.596C23.697 29.706 23.44 28.532 23.272 27.53C23.0543 26.2791 22.8752 25.0219 22.735 23.76C22.59 22.397 22.505 20.905 22.447 20.218C22.3629 19.0254 22.3066 17.8311 22.278 16.636C22.244 15.117 22.278 14.086 22.278 13.62C22.278 11.67 22.442 8.64298 22.983 7.02198C23.361 5.89198 23.858 5.32698 23.858 5.32698C24.3509 4.70925 24.9846 4.21856 25.706 3.89598C26.432 3.57973 27.1645 3.27867 27.903 2.99298L32.429 2.31798C32.429 2.31798 37.054 1.97298 42.361 1.97298C42.361 1.97298 50.54 2.13698 52.696 2.40498L57.348 2.99298C57.348 2.99298 58.392 3.39198 59.544 3.89598C60.23 4.19598 60.931 4.72698 61.393 5.32598C61.393 5.32598 61.89 5.89198 62.267 7.02198C62.809 8.64298 62.973 11.67 62.973 13.62C62.973 14.087 63.007 15.117 62.973 16.636C62.944 17.8311 62.8873 19.0255 62.803 20.218C62.746 20.905 62.66 22.398 62.516 23.759C62.376 25.021 62.196 26.279 61.979 27.529C61.81 28.532 61.554 29.707 61.273 30.596C60.988 31.496 60.679 32.106 60.319 32.549C60.319 32.549 59.062 34.894 54.933 35.355L49.388 35.826ZM65.424 10.764L65.104 8.13398L64.434 5.90398L63.416 4.27398L62.172 3.08698L60.781 2.27498L59.32 1.77298L55.48 0.937979L47.988 0.427979L38.375 0.452979L31.64 0.769978L28.19 1.20998L25.865 1.76598L23.975 2.51798L22.498 3.52798L21.41 4.85198L20.171 7.95198L19.698 12.477L19.768 18.439L20.04 22.129L20.63 26.473L21.221 29.486L21.974 31.805L23.504 34.275L24.574 35.146L26.207 36.008L28.689 36.75L31.769 37.199L37.512 37.547L45.756 37.565L54.326 37.108L58.94 36.031L60.817 35.031L62.307 33.491L63.298 31.755L63.855 30.251L64.362 27.725L65.148 22.299L65.538 15.261L65.424 10.763V10.764Z" fill="#BE0030"/>
<path fill-rule="evenodd" clip-rule="evenodd" d="M53.9921 34.787C54.6121 30.407 54.9691 24.035 55.3721 17.731C55.7811 11.305 56.2251 5.24098 56.2251 3.67398L53.0621 3.40698C52.8251 4.48898 52.0131 8.79298 50.9081 13.114C50.6571 14.098 50.4311 15.238 50.1991 16.066C49.7201 17.778 49.2161 20.781 47.9711 22.023C46.5471 23.445 45.0511 23.709 42.7251 23.709C40.9701 23.709 39.0411 23.708 37.5971 22.311C36.3171 21.072 35.9231 19.102 35.3751 17.282C35.2751 16.915 35.1571 16.265 35.0111 15.761L33.3711 9.33698L31.9971 3.40698L28.8911 3.70298C28.8911 5.26998 29.3341 11.305 29.7441 17.731C30.1451 24.035 30.5021 30.408 31.1231 34.787L35.6921 35.059C35.6921 35.059 36.9461 30.232 37.3941 29.071C37.8481 27.893 38.1901 26.959 39.9351 26.531C41.3191 26.193 43.9171 26.211 44.8511 26.411C46.1271 26.685 47.2041 27.144 47.7771 28.901C48.0191 29.641 48.3721 30.675 48.6751 31.788C49.0981 33.341 49.4921 35.059 49.4921 35.059L53.9921 34.787Z" fill="#BE0030"/>
</g>
</g>
<path d="M121.828 14.5874C121.828 14.1919 121.837 13.8281 121.857 13.4961C121.876 13.1592 121.918 12.7954 121.981 12.4048C122.045 12.0093 122.128 11.6553 122.23 11.3428C122.338 11.0303 122.482 10.7227 122.663 10.4199C122.843 10.1172 123.053 9.86572 123.292 9.66553C123.537 9.46045 123.837 9.29688 124.193 9.1748C124.55 9.05273 124.945 8.9917 125.38 8.9917C125.722 8.9917 126.039 9.03076 126.332 9.10889C126.625 9.18213 126.881 9.28467 127.101 9.4165C127.326 9.54346 127.528 9.70459 127.709 9.8999C127.89 10.0903 128.043 10.293 128.17 10.5078C128.297 10.7227 128.407 10.9668 128.5 11.2402C128.593 11.5088 128.666 11.7749 128.72 12.0386C128.778 12.2974 128.825 12.5806 128.859 12.8882C128.893 13.1909 128.915 13.4766 128.925 13.7451C128.939 14.0088 128.947 14.2896 128.947 14.5874C128.947 15.0562 128.935 15.4761 128.91 15.8472C128.891 16.2183 128.849 16.6064 128.786 17.0117C128.727 17.417 128.644 17.7734 128.537 18.0811C128.429 18.3838 128.285 18.6768 128.104 18.96C127.924 19.2432 127.709 19.4775 127.46 19.6631C127.216 19.8438 126.918 19.9878 126.566 20.0952C126.215 20.2026 125.819 20.2563 125.38 20.2563C124.94 20.2563 124.545 20.2026 124.193 20.0952C123.842 19.9878 123.544 19.8438 123.3 19.6631C123.056 19.4775 122.843 19.2432 122.663 18.96C122.482 18.6768 122.338 18.3838 122.23 18.0811C122.128 17.7734 122.045 17.417 121.981 17.0117C121.918 16.6064 121.876 16.2183 121.857 15.8472C121.837 15.4761 121.828 15.0562 121.828 14.5874ZM123.073 14.3896C123.073 15.0635 123.09 15.6348 123.124 16.1035C123.158 16.5674 123.222 17.0068 123.314 17.4219C123.412 17.832 123.544 18.1592 123.71 18.4033C123.881 18.6426 124.103 18.8306 124.376 18.9673C124.655 19.104 124.989 19.1724 125.38 19.1724C125.707 19.1724 125.993 19.1284 126.237 19.0405C126.481 18.9526 126.688 18.8135 126.859 18.623C127.03 18.4326 127.169 18.2129 127.277 17.9639C127.389 17.7148 127.475 17.4023 127.533 17.0264C127.597 16.6455 127.641 16.2524 127.665 15.8472C127.689 15.4419 127.702 14.9609 127.702 14.4043C127.702 13.8916 127.682 13.4302 127.643 13.02C127.604 12.6099 127.531 12.2168 127.423 11.8408C127.316 11.46 127.174 11.145 126.999 10.896C126.828 10.6421 126.603 10.4419 126.325 10.2954C126.046 10.144 125.722 10.0684 125.351 10.0684C124.989 10.0684 124.674 10.144 124.406 10.2954C124.137 10.4419 123.917 10.6396 123.747 10.8887C123.581 11.1377 123.446 11.4526 123.344 11.8335C123.241 12.2095 123.17 12.6025 123.131 13.0127C123.092 13.418 123.073 13.877 123.073 14.3896ZM130.521 15.8472C130.521 15.3882 130.546 14.9658 130.595 14.5801C130.648 14.1943 130.739 13.8257 130.866 13.4741C130.993 13.1226 131.154 12.8247 131.349 12.5806C131.544 12.3364 131.793 12.1436 132.096 12.002C132.404 11.8555 132.755 11.7822 133.151 11.7822C133.488 11.7822 133.803 11.875 134.096 12.0605C134.394 12.2412 134.628 12.5122 134.799 12.8735V9.19678H135.941V12.8882C136.117 12.5269 136.349 12.2534 136.637 12.0679C136.925 11.8774 137.238 11.7822 137.575 11.7822C137.97 11.7822 138.319 11.8555 138.622 12.002C138.93 12.1436 139.181 12.3364 139.376 12.5806C139.577 12.8247 139.74 13.1226 139.867 13.4741C139.994 13.8257 140.082 14.1943 140.131 14.5801C140.185 14.9658 140.211 15.3882 140.211 15.8472C140.211 18.7573 139.352 20.2124 137.633 20.2124C137.252 20.2124 136.935 20.127 136.681 19.9561C136.427 19.7803 136.181 19.5142 135.941 19.1577V22.7319H134.799V19.1577C134.564 19.5093 134.315 19.7729 134.052 19.9487C133.793 20.1245 133.473 20.2124 133.092 20.2124C132.677 20.2124 132.313 20.1343 132.001 19.978C131.693 19.8169 131.447 19.6069 131.261 19.3481C131.076 19.0894 130.924 18.7646 130.807 18.374C130.695 17.9834 130.619 17.5903 130.58 17.1948C130.541 16.7944 130.521 16.3452 130.521 15.8472ZM131.708 15.979C131.708 16.2378 131.71 16.4624 131.715 16.6528C131.72 16.8384 131.735 17.0532 131.759 17.2974C131.784 17.5366 131.815 17.7417 131.854 17.9126C131.898 18.0835 131.957 18.2593 132.03 18.4399C132.108 18.6206 132.199 18.7671 132.301 18.8794C132.409 18.9868 132.541 19.0771 132.697 19.1504C132.858 19.2188 133.039 19.2529 133.239 19.2529C133.532 19.2529 133.778 19.1797 133.979 19.0332C134.184 18.8867 134.345 18.6646 134.462 18.3667C134.584 18.064 134.669 17.7124 134.718 17.312C134.772 16.9067 134.799 16.4233 134.799 15.8618C134.799 13.7817 134.274 12.7417 133.224 12.7417C133 12.7417 132.802 12.7881 132.631 12.8809C132.46 12.9688 132.321 13.1006 132.213 13.2764C132.106 13.4521 132.016 13.6377 131.942 13.833C131.874 14.0283 131.823 14.2603 131.789 14.5288C131.759 14.7925 131.737 15.0317 131.723 15.2466C131.713 15.4614 131.708 15.7056 131.708 15.979ZM135.941 15.979C135.941 16.2378 135.944 16.4624 135.949 16.6528C135.954 16.8384 135.968 17.0532 135.993 17.2974C136.017 17.5366 136.049 17.7417 136.088 17.9126C136.132 18.0835 136.19 18.2593 136.264 18.4399C136.342 18.6206 136.432 18.7671 136.535 18.8794C136.642 18.9868 136.774 19.0771 136.93 19.1504C137.091 19.2188 137.272 19.2529 137.472 19.2529C137.765 19.2529 138.012 19.1797 138.212 19.0332C138.417 18.8867 138.578 18.6646 138.695 18.3667C138.817 18.064 138.903 17.7124 138.952 17.312C139.005 16.9067 139.032 16.4233 139.032 15.8618C139.032 13.7817 138.507 12.7417 137.458 12.7417C137.233 12.7417 137.035 12.7881 136.864 12.8809C136.693 12.9688 136.554 13.1006 136.447 13.2764C136.339 13.4521 136.249 13.6377 136.176 13.833C136.107 14.0283 136.056 14.2603 136.022 14.5288C135.993 14.7925 135.971 15.0317 135.956 15.2466C135.946 15.4614 135.941 15.7056 135.941 15.979ZM142.013 20V11.9873H143.156V18.0811C143.156 18.3398 143.117 18.6597 143.039 19.0405H143.053C143.151 18.5522 143.229 18.2324 143.288 18.0811L145.946 11.9873H147.323V20H146.188V13.9282C146.188 13.7183 146.227 13.3862 146.305 12.9321H146.291C146.208 13.4399 146.127 13.772 146.049 13.9282L143.397 20H142.013ZM149.425 20V11.9873H150.568V19.0405H153.402V11.9873H154.545V19.0405H155.321V22.1753H154.274V20H149.425ZM156.676 20V11.9873H157.819V18.0811C157.819 18.3398 157.78 18.6597 157.702 19.0405H157.716C157.814 18.5522 157.892 18.2324 157.951 18.0811L160.609 11.9873H161.986V20H160.851V13.9282C160.851 13.7183 160.89 13.3862 160.968 12.9321H160.954C160.871 13.4399 160.79 13.772 160.712 13.9282L158.061 20H156.676ZM163.642 18.0078C163.642 17.6514 163.678 17.3486 163.751 17.0996C163.825 16.8457 163.947 16.6235 164.118 16.4331C164.293 16.2427 164.496 16.0815 164.726 15.9497C164.96 15.8179 165.263 15.6787 165.634 15.5322C166.239 15.3076 166.715 15.1074 167.062 14.9316C167.189 14.873 167.27 14.7656 167.304 14.6094C167.343 14.4531 167.362 14.2456 167.362 13.9868C167.362 13.5278 167.272 13.2056 167.091 13.02C166.916 12.8345 166.601 12.7417 166.146 12.7417C165.727 12.7417 165.426 12.8564 165.246 13.0859C165.065 13.3154 164.975 13.6694 164.975 14.1479H163.957C163.957 13.3374 164.149 12.7417 164.535 12.3608C164.921 11.9751 165.497 11.7822 166.264 11.7822C167.016 11.7822 167.575 11.9751 167.941 12.3608C168.312 12.7417 168.498 13.2275 168.498 13.8184V18.5425C168.498 18.7378 168.534 18.894 168.607 19.0112C168.681 19.1284 168.791 19.187 168.937 19.187C169.03 19.187 169.115 19.1772 169.193 19.1577V20C169.096 20.0586 168.939 20.0879 168.725 20.0879C168.529 20.0879 168.375 20.0757 168.263 20.0513C168.151 20.0317 168.039 19.9854 167.926 19.9121C167.814 19.834 167.724 19.7168 167.655 19.5605C167.592 19.3994 167.538 19.187 167.494 18.9233H167.465C167.328 19.2847 167.091 19.5898 166.754 19.8389C166.417 20.0879 166.063 20.2124 165.692 20.2124C164.325 20.2124 163.642 19.4775 163.642 18.0078ZM164.828 17.9565C164.828 18.3325 164.914 18.6328 165.084 18.8574C165.26 19.0771 165.529 19.187 165.89 19.187C166.872 19.187 167.362 18.6475 167.362 17.5684V15.6348C167.196 15.7275 166.996 15.8276 166.762 15.9351C166.532 16.0425 166.334 16.1328 166.168 16.2061C166.007 16.2744 165.836 16.3647 165.656 16.4771C165.475 16.5845 165.329 16.6992 165.216 16.8213C165.104 16.9434 165.011 17.1021 164.938 17.2974C164.865 17.4878 164.828 17.7075 164.828 17.9565ZM169.713 19.9707V19.0698C169.86 19.0991 170.023 19.1138 170.204 19.1138C170.424 19.1138 170.59 19.0381 170.702 18.8867C170.814 18.7305 170.9 18.4302 170.958 17.9858C171.017 17.5415 171.046 16.8921 171.046 16.0376V11.9873H175.771V20H174.628V12.9468H172.138V16.1328C172.138 16.626 172.123 17.0605 172.094 17.4365C172.069 17.8076 172.018 18.1665 171.94 18.5132C171.867 18.855 171.767 19.1357 171.64 19.3555C171.513 19.5752 171.344 19.751 171.134 19.8828C170.929 20.0098 170.685 20.0732 170.402 20.0732C170.133 20.0732 169.904 20.0391 169.713 19.9707ZM177.873 20V11.9873H179.015V15.3052H180.619C181.273 15.3052 181.806 15.5347 182.216 15.9937C182.631 16.4526 182.838 17.0288 182.838 17.7222C182.838 18.4058 182.631 18.9575 182.216 19.3774C181.801 19.7925 181.269 20 180.619 20H177.873ZM179.015 19.0405H180.216C180.739 19.0405 181.107 18.9307 181.322 18.7109C181.542 18.4912 181.652 18.147 181.652 17.6782C181.652 16.7358 181.198 16.2646 180.29 16.2646H179.015V19.0405ZM184.64 20V11.9873H185.783V15.3052H188.617V11.9873H189.76V20H188.617V16.2646H185.783V20H184.64ZM191.862 20V11.9873H193.004V15.3052H194.608C195.263 15.3052 195.795 15.5347 196.205 15.9937C196.62 16.4526 196.828 17.0288 196.828 17.7222C196.828 18.4058 196.62 18.9575 196.205 19.3774C195.79 19.7925 195.258 20 194.608 20H191.862ZM193.004 19.0405H194.206C194.728 19.0405 195.097 18.9307 195.312 18.7109C195.531 18.4912 195.641 18.147 195.641 17.6782C195.641 16.7358 195.187 16.2646 194.279 16.2646H193.004V19.0405ZM198.131 20V11.9873H199.274V20H198.131ZM201.369 20V11.9873H202.511V18.0811C202.511 18.3398 202.472 18.6597 202.394 19.0405H202.409C202.506 18.5522 202.584 18.2324 202.643 18.0811L205.302 11.9873H206.679V20H205.543V13.9282C205.543 13.7183 205.583 13.3862 205.661 12.9321H205.646C205.563 13.4399 205.482 13.772 205.404 13.9282L202.753 20H201.369ZM202.24 9.39453H202.826C202.963 10.0635 203.378 10.3979 204.071 10.3979C204.413 10.3979 204.682 10.3223 204.877 10.1709C205.077 10.0146 205.214 9.75586 205.287 9.39453H205.888C205.858 9.99512 205.675 10.4443 205.338 10.7422C205.001 11.0352 204.56 11.1816 204.013 11.1816C203.51 11.1816 203.095 11.0327 202.768 10.7349C202.445 10.437 202.27 9.99023 202.24 9.39453ZM211.637 19.0405H212.326C212.692 18.269 212.941 17.5879 213.073 16.9971C213.205 16.4062 213.271 15.6177 213.271 14.6313V11.9873H217.65V19.0405H218.419V22.1753H217.365V20H212.685V22.1753H211.637V19.0405ZM213.498 19.0405H216.515V12.9468H214.369V15.2466C214.369 16.0278 214.306 16.6821 214.179 17.2095C214.052 17.7319 213.825 18.3423 213.498 19.0405ZM219.767 20V11.9873H220.91V18.0811C220.91 18.3398 220.871 18.6597 220.792 19.0405H220.807C220.905 18.5522 220.983 18.2324 221.042 18.0811L223.7 11.9873H225.077V20H223.942V13.9282C223.942 13.7183 223.981 13.3862 224.059 12.9321H224.044C223.961 13.4399 223.881 13.772 223.803 13.9282L221.151 20H219.767ZM226.3 19.9707V19.0698C226.447 19.0991 226.61 19.1138 226.791 19.1138C227.011 19.1138 227.177 19.0381 227.289 18.8867C227.401 18.7305 227.487 18.4302 227.545 17.9858C227.604 17.5415 227.633 16.8921 227.633 16.0376V11.9873H232.357V20H231.215V12.9468H228.725V16.1328C228.725 16.626 228.71 17.0605 228.681 17.4365C228.656 17.8076 228.605 18.1665 228.527 18.5132C228.454 18.855 228.354 19.1357 228.227 19.3555C228.1 19.5752 227.931 19.751 227.721 19.8828C227.516 20.0098 227.272 20.0732 226.989 20.0732C226.72 20.0732 226.491 20.0391 226.3 19.9707ZM234.159 15.979C234.159 13.1812 235.016 11.7822 236.73 11.7822C237.096 11.7822 237.418 11.8433 237.697 11.9653C237.98 12.0825 238.209 12.2559 238.385 12.4854C238.566 12.71 238.715 12.9565 238.832 13.2251C238.949 13.4888 239.035 13.8037 239.088 14.1699C239.147 14.5361 239.186 14.8779 239.206 15.1953C239.225 15.5078 239.235 15.8643 239.235 16.2646H235.346C235.346 16.6113 235.351 16.8994 235.36 17.1289C235.37 17.3584 235.39 17.5977 235.419 17.8467C235.453 18.0957 235.502 18.2983 235.565 18.4546C235.634 18.606 235.719 18.7476 235.822 18.8794C235.924 19.0112 236.056 19.1064 236.217 19.165C236.378 19.2236 236.569 19.2529 236.789 19.2529C237.658 19.2529 238.092 18.6108 238.092 17.3267H239.235C239.235 18.1665 239.03 18.8574 238.62 19.3994C238.214 19.9414 237.614 20.2124 236.818 20.2124C236.383 20.2124 236.007 20.1416 235.69 20C235.373 19.8584 235.097 19.6289 234.862 19.3115C234.628 18.9893 234.452 18.5522 234.335 18.0005C234.218 17.4438 234.159 16.77 234.159 15.979ZM235.346 15.3052H238.048C238.048 15.0317 238.039 14.7852 238.019 14.5654C238.004 14.3457 237.97 14.1187 237.917 13.8843C237.863 13.645 237.79 13.4473 237.697 13.291C237.604 13.1299 237.477 12.998 237.316 12.8955C237.155 12.793 236.964 12.7417 236.745 12.7417C236.544 12.7417 236.364 12.7808 236.203 12.8589C236.046 12.9321 235.919 13.0396 235.822 13.1812C235.724 13.3179 235.641 13.4668 235.573 13.6279C235.509 13.7842 235.46 13.9673 235.426 14.1772C235.397 14.3823 235.375 14.5703 235.36 14.7412C235.351 14.9121 235.346 15.1001 235.346 15.3052ZM241.037 22.7905V11.9873H242.179V12.8882H242.194C242.365 12.5366 242.604 12.2656 242.912 12.0752C243.219 11.8799 243.524 11.7822 243.827 11.7822C245.58 11.7822 246.457 13.1421 246.457 15.8618C246.457 16.5063 246.415 17.0776 246.332 17.5757C246.254 18.0737 246.122 18.5278 245.937 18.938C245.751 19.3481 245.487 19.6631 245.146 19.8828C244.804 20.1025 244.391 20.2124 243.908 20.2124C243.522 20.2124 243.195 20.127 242.926 19.9561C242.663 19.7803 242.414 19.519 242.179 19.1724V22.7905H241.037ZM242.179 15.979C242.179 16.2378 242.182 16.4624 242.187 16.6528C242.191 16.8384 242.206 17.0532 242.23 17.2974C242.255 17.5366 242.287 17.7417 242.326 17.9126C242.37 18.0835 242.428 18.2593 242.501 18.4399C242.58 18.6206 242.67 18.7671 242.772 18.8794C242.88 18.9868 243.012 19.0771 243.168 19.1504C243.329 19.2188 243.51 19.2529 243.71 19.2529C244.003 19.2529 244.25 19.1797 244.45 19.0332C244.655 18.8867 244.816 18.6646 244.933 18.3667C245.055 18.064 245.141 17.7124 245.189 17.312C245.243 16.9067 245.27 16.4233 245.27 15.8618C245.27 13.7817 244.745 12.7417 243.695 12.7417C243.471 12.7417 243.273 12.7881 243.102 12.8809C242.931 12.9688 242.792 13.1006 242.685 13.2764C242.577 13.4521 242.487 13.6377 242.414 13.833C242.345 14.0283 242.294 14.2603 242.26 14.5288C242.23 14.7925 242.208 15.0317 242.194 15.2466C242.184 15.4614 242.179 15.7056 242.179 15.979Z" fill="#343434"/>
<path d="M123.768 34.776H121.64C121.64 32.76 122.904 31.24 125.08 31.24C126.632 31.24 128.536 31.976 128.536 34.312C128.536 35.512 127.816 36.552 126.76 36.824C127.912 37.112 128.696 38.056 128.696 39.8C128.696 42.12 127.432 43.272 125.144 43.272C123.256 43.272 121.464 42.408 121.464 39.928H123.592C123.592 40.728 123.912 41.512 125.016 41.512C126.072 41.512 126.456 40.792 126.456 39.592C126.456 38.232 125.768 37.736 124.856 37.736H124.392V36.088H124.856C125.672 36.088 126.296 35.64 126.296 34.616C126.296 33.848 126.008 33 125.08 33C124.216 33 123.768 33.736 123.768 34.776ZM132.414 33.096V36.136H133.566C134.526 36.136 134.926 35.56 134.926 34.568C134.926 33.592 134.59 33.096 133.598 33.096H132.414ZM132.414 37.784V41.352H133.822C134.638 41.352 135.038 40.856 135.038 39.56C135.038 38.424 134.638 37.784 133.822 37.784H132.414ZM130.222 43V31.448H134.27C136.302 31.448 137.118 32.792 137.118 34.264C137.118 35.368 136.526 36.6 135.566 36.792C136.702 37.256 137.278 38.072 137.278 39.576C137.278 41.576 136.414 43 134.638 43H130.222ZM138.659 31.448H144.835V33.208H140.851V35.896H144.483V37.656H140.851V41.24H144.835V43H138.659V31.448ZM148.174 34.776H146.046C146.046 32.76 147.31 31.24 149.486 31.24C151.038 31.24 152.942 31.976 152.942 34.312C152.942 35.512 152.222 36.552 151.166 36.824C152.318 37.112 153.102 38.056 153.102 39.8C153.102 42.12 151.838 43.272 149.55 43.272C147.662 43.272 145.87 42.408 145.87 39.928H147.998C147.998 40.728 148.318 41.512 149.422 41.512C150.478 41.512 150.862 40.792 150.862 39.592C150.862 38.232 150.174 37.736 149.262 37.736H148.798V36.088H149.262C150.078 36.088 150.702 35.64 150.702 34.616C150.702 33.848 150.414 33 149.486 33C148.622 33 148.174 33.736 148.174 34.776ZM156.052 31.448H162.612V41.24H163.316V45.32H161.204V43H156.42V45.32H154.308V41.24H154.996C155.764 39.544 156.052 38.232 156.052 35.048V31.448ZM160.42 33.208H158.212V35.832C158.212 38.488 157.844 39.8 157.172 41.24H160.42V33.208ZM163.877 43L166.805 31.448H169.749L172.309 43H169.941L169.397 39.992H166.917L166.229 43H163.877ZM167.189 38.28H169.125L168.245 32.904L167.189 38.28ZM179.258 31.448V35.896H182.154V31.448H184.346V43H182.154V37.656H179.258V43H177.066V31.448H179.258ZM185.941 31.448H192.117V33.208H188.133V35.896H191.765V37.656H188.133V41.24H192.117V43H185.941V31.448ZM195.68 33.096V36.136H196.832C197.792 36.136 198.192 35.56 198.192 34.568C198.192 33.592 197.856 33.096 196.864 33.096H195.68ZM195.68 37.784V41.352H197.088C197.904 41.352 198.304 40.856 198.304 39.56C198.304 38.424 197.904 37.784 197.088 37.784H195.68ZM193.488 43V31.448H197.536C199.568 31.448 200.384 32.792 200.384 34.264C200.384 35.368 199.792 36.6 198.832 36.792C199.968 37.256 200.544 38.072 200.544 39.576C200.544 41.576 199.68 43 197.904 43H193.488ZM204.117 37.656V41.352H205.381C206.197 41.352 206.661 40.856 206.661 39.56C206.661 38.424 206.197 37.656 205.381 37.656H204.117ZM204.117 31.448V35.896H205.957C207.749 35.896 208.901 37.672 208.901 39.304C208.901 41.528 207.893 43 206.149 43H201.925V31.448H204.117ZM212.757 31.448V43H210.565V31.448H212.757Z" fill="#343434"/>
<line x1="104" y1="9" x2="104" y2="46" stroke="#F5F5F8" stroke-width="2"/>
<defs>
<clipPath id="clip0_222_6">
<rect width="85" height="54" fill="white"/>
</clipPath>
<clipPath id="clip1_222_6">
<rect width="85" height="54" fill="white"/>
</clipPath>
</defs>
</svg>