<svg xmlns:xlink="http://www.w3.org/1999/xlink" xmlns="http://www.w3.org/2000/svg" class="advent__item-icon" width="111"  height="84" ><defs><symbol id="i-car-edit" viewBox="0 0 111 84"><path transform="rotate(-45 57.12 41.849)" fill="#EF1526" d="M57.12 41.849h37.8v37.8h-37.8z"></path><path fill="#343434" d="M0 0h84v84H0z"></path><circle cx="12.6" cy="11.76" r="1.68" fill="#5A5A5A"></circle><circle cx="24.36" cy="11.76" r="1.68" fill="#5A5A5A"></circle><circle cx="36.12" cy="11.76" r="1.68" fill="#5A5A5A"></circle><circle cx="47.88" cy="11.76" r="1.68" fill="#5A5A5A"></circle><circle cx="59.64" cy="11.76" r="1.68" fill="#5A5A5A"></circle><circle cx="71.4" cy="11.76" r="1.68" fill="#5A5A5A"></circle><circle cx="12.6" cy="16.8" r="1.68" fill="#5A5A5A"></circle><circle cx="18.48" cy="16.8" r="1.68" fill="#5A5A5A"></circle><circle cx="24.36" cy="16.8" r="1.68" fill="#5A5A5A"></circle><circle cx="30.24" cy="16.8" r="1.68" fill="#5A5A5A"></circle><circle cx="36.12" cy="16.8" r="1.68" fill="#5A5A5A"></circle><circle cx="42" cy="16.8" r="1.68" fill="#5A5A5A"></circle><circle cx="47.88" cy="16.8" r="1.68" fill="#5A5A5A"></circle><circle cx="53.76" cy="16.8" r="1.68" fill="#5A5A5A"></circle><circle cx="59.64" cy="16.8" r="1.68" fill="#5A5A5A"></circle><circle cx="65.52" cy="16.8" r="1.68" fill="#5A5A5A"></circle><circle cx="71.4" cy="16.8" r="1.68" fill="#5A5A5A"></circle><circle cx="12.6" cy="21.84" r="1.68" fill="#5A5A5A"></circle><circle cx="24.36" cy="21.84" r="1.68" fill="#5A5A5A"></circle><circle cx="36.12" cy="21.84" r="1.68" fill="#5A5A5A"></circle><circle cx="47.88" cy="21.84" r="1.68" fill="#5A5A5A"></circle><circle cx="59.64" cy="21.84" r="1.68" fill="#5A5A5A"></circle><circle cx="71.4" cy="21.84" r="1.68" fill="#5A5A5A"></circle><circle cx="12.6" cy="26.88" r="1.68" fill="#5A5A5A"></circle><circle cx="18.48" cy="26.88" r="1.68" fill="#5A5A5A"></circle><circle cx="24.36" cy="26.88" r="1.68" fill="#5A5A5A"></circle><circle cx="30.24" cy="26.88" r="1.68" fill="#5A5A5A"></circle><circle cx="36.12" cy="26.88" r="1.68" fill="#5A5A5A"></circle><circle cx="42" cy="26.88" r="1.68" fill="#5A5A5A"></circle><circle cx="47.88" cy="26.88" r="1.68" fill="#5A5A5A"></circle><circle cx="53.76" cy="26.88" r="1.68" fill="#5A5A5A"></circle><circle cx="59.64" cy="26.88" r="1.68" fill="#5A5A5A"></circle><circle cx="65.52" cy="26.88" r="1.68" fill="#5A5A5A"></circle><circle cx="71.4" cy="26.88" r="1.68" fill="#5A5A5A"></circle><circle cx="12.6" cy="31.92" r="1.68" fill="#5A5A5A"></circle><circle cx="24.36" cy="31.92" r="1.68" fill="#5A5A5A"></circle><circle cx="36.12" cy="31.92" r="1.68" fill="#5A5A5A"></circle><circle cx="47.88" cy="31.92" r="1.68" fill="#5A5A5A"></circle><circle cx="59.64" cy="31.92" r="1.68" fill="#5A5A5A"></circle><circle cx="71.4" cy="31.92" r="1.68" fill="#5A5A5A"></circle><circle cx="12.6" cy="36.96" r="1.68" fill="#5A5A5A"></circle><circle cx="18.48" cy="36.96" r="1.68" fill="#5A5A5A"></circle><circle cx="24.36" cy="36.96" r="1.68" fill="#5A5A5A"></circle><circle cx="30.24" cy="36.96" r="1.68" fill="#5A5A5A"></circle><circle cx="36.12" cy="36.96" r="1.68" fill="#5A5A5A"></circle><circle cx="42" cy="36.96" r="1.68" fill="#5A5A5A"></circle><circle cx="47.88" cy="36.96" r="1.68" fill="#5A5A5A"></circle><circle cx="53.76" cy="36.96" r="1.68" fill="#5A5A5A"></circle><circle cx="59.64" cy="36.96" r="1.68" fill="#5A5A5A"></circle><circle cx="65.52" cy="36.96" r="1.68" fill="#5A5A5A"></circle><circle cx="71.4" cy="36.96" r="1.68" fill="#5A5A5A"></circle><circle cx="12.6" cy="42" r="1.68" fill="#5A5A5A"></circle><circle cx="24.36" cy="42" r="1.68" fill="#5A5A5A"></circle><circle cx="36.12" cy="42" r="1.68" fill="#5A5A5A"></circle><circle cx="47.88" cy="42" r="1.68" fill="#5A5A5A"></circle><circle cx="59.64" cy="42" r="1.68" fill="#5A5A5A"></circle><circle cx="71.4" cy="42" r="1.68" fill="#5A5A5A"></circle><circle cx="12.6" cy="47.04" r="1.68" fill="#5A5A5A"></circle><circle cx="18.48" cy="47.04" r="1.68" fill="#5A5A5A"></circle><circle cx="24.36" cy="47.04" r="1.68" fill="#5A5A5A"></circle><circle cx="30.24" cy="47.04" r="1.68" fill="#5A5A5A"></circle><circle cx="36.12" cy="47.04" r="1.68" fill="#5A5A5A"></circle><circle cx="42" cy="47.04" r="1.68" fill="#5A5A5A"></circle><circle cx="47.88" cy="47.04" r="1.68" fill="#5A5A5A"></circle><circle cx="53.76" cy="47.04" r="1.68" fill="#5A5A5A"></circle><circle cx="59.64" cy="47.04" r="1.68" fill="#5A5A5A"></circle><circle cx="65.52" cy="47.04" r="1.68" fill="#5A5A5A"></circle><circle cx="71.4" cy="47.04" r="1.68" fill="#5A5A5A"></circle><circle cx="12.6" cy="52.08" r="1.68" fill="#5A5A5A"></circle><circle cx="24.36" cy="52.08" r="1.68" fill="#5A5A5A"></circle><circle cx="36.12" cy="52.08" r="1.68" fill="#5A5A5A"></circle><circle cx="47.88" cy="52.08" r="1.68" fill="#5A5A5A"></circle><circle cx="59.64" cy="52.08" r="1.68" fill="#5A5A5A"></circle><circle cx="71.4" cy="52.08" r="1.68" fill="#5A5A5A"></circle><circle cx="12.6" cy="57.12" r="1.68" fill="#5A5A5A"></circle><circle cx="18.48" cy="57.12" r="1.68" fill="#5A5A5A"></circle><circle cx="24.36" cy="57.12" r="1.68" fill="#5A5A5A"></circle><circle cx="30.24" cy="57.12" r="1.68" fill="#5A5A5A"></circle><circle cx="36.12" cy="57.12" r="1.68" fill="#5A5A5A"></circle><circle cx="42" cy="57.12" r="1.68" fill="#5A5A5A"></circle><circle cx="47.88" cy="57.12" r="1.68" fill="#5A5A5A"></circle><circle cx="53.76" cy="57.12" r="1.68" fill="#5A5A5A"></circle><circle cx="59.64" cy="57.12" r="1.68" fill="#5A5A5A"></circle><circle cx="65.52" cy="57.12" r="1.68" fill="#5A5A5A"></circle><circle cx="71.4" cy="57.12" r="1.68" fill="#5A5A5A"></circle><circle cx="12.6" cy="62.16" r="1.68" fill="#5A5A5A"></circle><circle cx="24.36" cy="62.16" r="1.68" fill="#5A5A5A"></circle><circle cx="36.12" cy="62.16" r="1.68" fill="#5A5A5A"></circle><circle cx="47.88" cy="62.16" r="1.68" fill="#5A5A5A"></circle><circle cx="59.64" cy="62.16" r="1.68" fill="#5A5A5A"></circle><circle cx="71.4" cy="62.16" r="1.68" fill="#5A5A5A"></circle><circle cx="12.6" cy="67.2" r="1.68" fill="#5A5A5A"></circle><circle cx="18.48" cy="67.2" r="1.68" fill="#5A5A5A"></circle><circle cx="24.36" cy="67.2" r="1.68" fill="#5A5A5A"></circle><circle cx="30.24" cy="67.2" r="1.68" fill="#5A5A5A"></circle><circle cx="36.12" cy="67.2" r="1.68" fill="#5A5A5A"></circle><circle cx="42" cy="67.2" r="1.68" fill="#5A5A5A"></circle><circle cx="47.88" cy="67.2" r="1.68" fill="#5A5A5A"></circle><circle cx="53.76" cy="67.2" r="1.68" fill="#5A5A5A"></circle><circle cx="59.64" cy="67.2" r="1.68" fill="#5A5A5A"></circle><circle cx="65.52" cy="67.2" r="1.68" fill="#5A5A5A"></circle><circle cx="71.4" cy="67.2" r="1.68" fill="#5A5A5A"></circle><circle cx="12.6" cy="72.24" r="1.68" fill="#5A5A5A"></circle><circle cx="24.36" cy="72.24" r="1.68" fill="#5A5A5A"></circle><circle cx="36.12" cy="72.24" r="1.68" fill="#5A5A5A"></circle><circle cx="47.88" cy="72.24" r="1.68" fill="#5A5A5A"></circle><circle cx="59.64" cy="72.24" r="1.68" fill="#5A5A5A"></circle><circle cx="71.4" cy="72.24" r="1.68" fill="#5A5A5A"></circle><path d="M57.427 25.22c-.243.192-.243.222-.243 1.978 0 2.271-.082 2.17 1.736 2.17h1.26v1.313c0 .716-.02 1.312-.051 1.312-.03 0-1.777-1.232-3.87-2.726l-3.819-2.725h-6.327c-6.916 0-7.048.01-8.907.616-2.468.797-4.753 2.291-5.637 3.684l-.274.424-3.656.05c-3.93.05-4.225.081-5.647.636-1.534.596-3.21 1.918-4.225 3.341-.965 1.332-1.605 3.109-1.726 4.784-.061.798-.051.888.152 1.09.203.202.294.212 2.844.212h2.62l.071.424c.183 1.15 1.34 2.675 2.448 3.24 2.061 1.03 4.387.656 5.89-.959.6-.636 1.117-1.615 1.23-2.28l.07-.425H35.5v1.464c0 1.927-.061 1.867 1.706 1.867h1.29l1.016 1.201c.548.656 1.025 1.242 1.046 1.302.01.05-.6.626-1.371 1.282-.772.656-1.483 1.282-1.575 1.383-.386.434-.264.595 1.392 2.008.863.737 1.574 1.373 1.574 1.423 0 .04-.467.626-1.036 1.292l-1.036 1.211h-4.225c-3.656 0-4.255.02-4.448.162-.224.151-.224.192-.224 2.412 0 2.22 0 2.261.224 2.412.203.142 1.483.162 11.69.162h11.456l.244-.252c.254-.243.254-.253.254-2.302 0-1.938-.01-2.079-.214-2.331l-.203-.263h-4.286l-4.286-.01-1.015-1.2c-.559-.667-1.016-1.252-1.016-1.293 0-.05.548-.555 1.219-1.13 1.91-1.615 1.879-1.585 1.879-1.908 0-.252-.203-.464-1.392-1.483a62.548 62.548 0 0 1-1.594-1.363c-.183-.172-.163-.212.893-1.443l1.087-1.272h1.3c1.717 0 1.635.09 1.635-1.847v-1.484h3.738l.06.454c.245 1.585 1.93 3.29 3.647 3.684.61.142 1.767.121 2.356-.04 1.706-.454 3.128-1.897 3.524-3.583l.112-.515h3.016c2.793 0 3.027-.01 3.18-.181.152-.162.172-.495.182-2.453.01-3.482-.01-4.27-.101-4.42-.051-.082-.57-.263-1.148-.415l-1.046-.272-.03-2.13-.021-2.12 1.381-.04c1.23-.03 1.392-.05 1.524-.222.111-.151.142-.595.142-1.948 0-1.615-.02-1.766-.203-1.948-.193-.192-.335-.202-5.17-.202-4.733 0-4.976.01-5.2.192zm9.354 1.978v.96l-4.184-.021-4.195-.03-.03-.798c-.02-.444-.01-.858.02-.938.04-.101.833-.131 4.225-.131h4.164v.958zM56.087 30.64c2.224 1.585 4.103 2.947 4.184 3.028.081.07 1.422.444 2.976.818l2.823.686v.858h-.904c-.599 0-.934.04-1.005.121-.132.171-.264 1.978-.183 2.553.112.677.234.758 1.24.758h.852v.706h-5.16l-.07-.394c-.122-.726-.721-1.806-1.351-2.432-1.91-1.887-4.865-1.898-6.845-.02-.66.625-1.25 1.655-1.361 2.392l-.061.454H31.366l-.07-.424c-.113-.666-.63-1.645-1.23-2.28-1.503-1.616-3.829-1.99-5.89-.96-1.107.565-2.265 2.09-2.448 3.24l-.071.424h-4.448l.06-.383c.041-.202.082-.434.102-.505.03-.091.386-.121 1.3-.121 1.818 0 1.767.03 2.448-1.464.883-1.948.832-2.069-.914-2.069h-1.168l.284-.363c.467-.586 1.716-1.524 2.6-1.958 1.473-.707 1.686-.737 5.962-.777 2.092-.02 3.9-.051 4.022-.081.132-.03.284-.212.406-.475.589-1.302 2.752-2.836 5.098-3.613 1.788-.585 1.767-.585 8.47-.596l6.176-.01 4.032 2.887zm7.647.697c0 1.281-.04 1.968-.101 1.968-.061 0-.59-.121-1.168-.263l-1.067-.262v-3.412h2.336v1.969zM19.93 37.361l-.233.535-.935.03c-1.056.03-1.086.01-.73-.686l.202-.404h1.93l-.234.525zm8.186.131c1.778.868 2.56 3.028 1.747 4.774-.335.707-1.036 1.434-1.747 1.797-.538.262-.68.293-1.604.293-.965 0-1.047-.02-1.656-.343-1.29-.697-1.98-1.837-1.98-3.24 0-1.615.934-2.897 2.549-3.503.244-.08.68-.12 1.239-.1.7.03.975.09 1.452.322zm29.545.03a3.78 3.78 0 0 1 1.726 1.716c.346.697.386 2.08.082 2.867-.285.747-.945 1.474-1.747 1.907-.61.324-.69.344-1.656.344-1.229 0-1.696-.182-2.529-.96-.792-.746-1.117-1.513-1.117-2.623-.01-.727.04-.95.274-1.464.67-1.433 1.9-2.2 3.474-2.15.69.03.924.081 1.493.364zm8.41.223v.504h-.813V37.24h.812v.505zm-19.805 4.693v1.06h-9.547v-2.12h9.547v1.06zm-3.992 3.048c-.366.434-.7.787-.751.787-.102 0-1.351-1.392-1.351-1.504 0-.03.62-.06 1.381-.06h1.381l-.66.777zm.528 3.745l1.23 1.04-1.24 1.06c-.68.574-1.27 1.039-1.31 1.029-.183-.071-2.427-2.04-2.407-2.11.05-.121 2.356-2.1 2.437-2.08.041.011.62.485 1.29 1.06zm-.569 5.773l.691.807h-1.391c-1.34 0-1.382-.01-1.25-.191.265-.364 1.158-1.413 1.21-1.413.03-.01.365.353.74.797zm10.025 3.381v1.363h-21.43v-2.725h21.43v1.362z" fill="#fff"></path><path d="M38.395 29.46c-2.722.686-4.804 2.523-4.997 4.41-.051.444-.02.586.122.747.182.202.345.202 12.187.202 11.69 0 12.005-.01 12.177-.192a.647.647 0 0 0 .143-.474c-.03-.283-.63-.777-4.896-3.977l-1.198-.908-6.419.01c-5.8 0-6.48.02-7.12.181zm6.753 2.583v1.565h-5.23c-5.88 0-5.393.08-4.794-.788.58-.858 2.194-1.867 3.474-2.18.457-.11 1.36-.151 3.585-.151l2.965-.01v1.564zm8.4-.03c1.107.838 2.031 1.544 2.051 1.564.02.01-2.02.03-4.54.03h-4.59V30.48h5.078l2 1.534zM35.053 37.16c-.233.323-.203.545.112.778.264.212.304.212 6.652.191 6.195-.03 6.398-.04 6.54-.222.184-.262.184-.615-.02-.807-.142-.142-.883-.162-6.642-.162h-6.49l-.152.222zm-9.435 1.151c-1.727.535-2.265 3.008-.934 4.33.995.99 2.66.99 3.656 0 .477-.464.762-1.18.762-1.867 0-1.13-.732-2.17-1.737-2.463-.65-.192-1.107-.192-1.747 0zm1.544 1.231c.934.505.944 2.009.01 2.463-.955.474-2.031-.172-2.031-1.231 0-.747.65-1.413 1.37-1.413.173 0 .468.08.65.181zm28.061-1.241c-.599.182-1.076.575-1.411 1.14-.254.414-.285.576-.285 1.333 0 .928.132 1.302.65 1.847.813.878 2.428 1.01 3.433.282.213-.15.518-.524.69-.827.255-.464.295-.656.295-1.302s-.04-.838-.294-1.302c-.366-.656-.894-1.07-1.585-1.211-.64-.142-.944-.132-1.493.04zm1.615 1.282c.285.172.6.807.6 1.19 0 .475-.346 1.06-.752 1.252-.427.202-.772.202-1.229.02-.995-.413-1.016-2.099-.02-2.543.365-.161 1.056-.121 1.401.08z" fill="#fff"></path></symbol></defs>
                    <use xlink:href="#i-car-edit"></use>
                </svg>