<svg xmlns:xlink="http://www.w3.org/1999/xlink" xmlns="http://www.w3.org/2000/svg" class="advent__item-icon" width="111"  height="84" ><defs><symbol id="i-special" viewBox="0 0 111 84"><path transform="rotate(-45 57.12 41.849)" fill="#EF1526" d="M57.12 41.849h37.8v37.8h-37.8z"></path><path fill="#343434" d="M0 0h84v84H0z"></path><circle cx="12.6" cy="11.76" r="1.68" fill="#5A5A5A"></circle><circle cx="24.36" cy="11.76" r="1.68" fill="#5A5A5A"></circle><circle cx="36.12" cy="11.76" r="1.68" fill="#5A5A5A"></circle><circle cx="47.88" cy="11.76" r="1.68" fill="#5A5A5A"></circle><circle cx="59.64" cy="11.76" r="1.68" fill="#5A5A5A"></circle><circle cx="71.4" cy="11.76" r="1.68" fill="#5A5A5A"></circle><circle cx="12.6" cy="16.8" r="1.68" fill="#5A5A5A"></circle><circle cx="18.48" cy="16.8" r="1.68" fill="#5A5A5A"></circle><circle cx="24.36" cy="16.8" r="1.68" fill="#5A5A5A"></circle><circle cx="30.24" cy="16.8" r="1.68" fill="#5A5A5A"></circle><circle cx="36.12" cy="16.8" r="1.68" fill="#5A5A5A"></circle><circle cx="42" cy="16.8" r="1.68" fill="#5A5A5A"></circle><circle cx="47.88" cy="16.8" r="1.68" fill="#5A5A5A"></circle><circle cx="53.76" cy="16.8" r="1.68" fill="#5A5A5A"></circle><circle cx="59.64" cy="16.8" r="1.68" fill="#5A5A5A"></circle><circle cx="65.52" cy="16.8" r="1.68" fill="#5A5A5A"></circle><circle cx="71.4" cy="16.8" r="1.68" fill="#5A5A5A"></circle><circle cx="12.6" cy="21.84" r="1.68" fill="#5A5A5A"></circle><circle cx="24.36" cy="21.84" r="1.68" fill="#5A5A5A"></circle><circle cx="36.12" cy="21.84" r="1.68" fill="#5A5A5A"></circle><circle cx="47.88" cy="21.84" r="1.68" fill="#5A5A5A"></circle><circle cx="59.64" cy="21.84" r="1.68" fill="#5A5A5A"></circle><circle cx="71.4" cy="21.84" r="1.68" fill="#5A5A5A"></circle><circle cx="12.6" cy="26.88" r="1.68" fill="#5A5A5A"></circle><circle cx="18.48" cy="26.88" r="1.68" fill="#5A5A5A"></circle><circle cx="24.36" cy="26.88" r="1.68" fill="#5A5A5A"></circle><circle cx="30.24" cy="26.88" r="1.68" fill="#5A5A5A"></circle><circle cx="36.12" cy="26.88" r="1.68" fill="#5A5A5A"></circle><circle cx="42" cy="26.88" r="1.68" fill="#5A5A5A"></circle><circle cx="47.88" cy="26.88" r="1.68" fill="#5A5A5A"></circle><circle cx="53.76" cy="26.88" r="1.68" fill="#5A5A5A"></circle><circle cx="59.64" cy="26.88" r="1.68" fill="#5A5A5A"></circle><circle cx="65.52" cy="26.88" r="1.68" fill="#5A5A5A"></circle><circle cx="71.4" cy="26.88" r="1.68" fill="#5A5A5A"></circle><circle cx="12.6" cy="31.92" r="1.68" fill="#5A5A5A"></circle><circle cx="24.36" cy="31.92" r="1.68" fill="#5A5A5A"></circle><circle cx="36.12" cy="31.92" r="1.68" fill="#5A5A5A"></circle><circle cx="47.88" cy="31.92" r="1.68" fill="#5A5A5A"></circle><circle cx="59.64" cy="31.92" r="1.68" fill="#5A5A5A"></circle><circle cx="71.4" cy="31.92" r="1.68" fill="#5A5A5A"></circle><circle cx="12.6" cy="36.96" r="1.68" fill="#5A5A5A"></circle><circle cx="18.48" cy="36.96" r="1.68" fill="#5A5A5A"></circle><circle cx="24.36" cy="36.96" r="1.68" fill="#5A5A5A"></circle><circle cx="30.24" cy="36.96" r="1.68" fill="#5A5A5A"></circle><circle cx="36.12" cy="36.96" r="1.68" fill="#5A5A5A"></circle><circle cx="42" cy="36.96" r="1.68" fill="#5A5A5A"></circle><circle cx="47.88" cy="36.96" r="1.68" fill="#5A5A5A"></circle><circle cx="53.76" cy="36.96" r="1.68" fill="#5A5A5A"></circle><circle cx="59.64" cy="36.96" r="1.68" fill="#5A5A5A"></circle><circle cx="65.52" cy="36.96" r="1.68" fill="#5A5A5A"></circle><circle cx="71.4" cy="36.96" r="1.68" fill="#5A5A5A"></circle><circle cx="12.6" cy="42" r="1.68" fill="#5A5A5A"></circle><circle cx="24.36" cy="42" r="1.68" fill="#5A5A5A"></circle><circle cx="36.12" cy="42" r="1.68" fill="#5A5A5A"></circle><circle cx="47.88" cy="42" r="1.68" fill="#5A5A5A"></circle><circle cx="59.64" cy="42" r="1.68" fill="#5A5A5A"></circle><circle cx="71.4" cy="42" r="1.68" fill="#5A5A5A"></circle><circle cx="12.6" cy="47.04" r="1.68" fill="#5A5A5A"></circle><circle cx="18.48" cy="47.04" r="1.68" fill="#5A5A5A"></circle><circle cx="24.36" cy="47.04" r="1.68" fill="#5A5A5A"></circle><circle cx="30.24" cy="47.04" r="1.68" fill="#5A5A5A"></circle><circle cx="36.12" cy="47.04" r="1.68" fill="#5A5A5A"></circle><circle cx="42" cy="47.04" r="1.68" fill="#5A5A5A"></circle><circle cx="47.88" cy="47.04" r="1.68" fill="#5A5A5A"></circle><circle cx="53.76" cy="47.04" r="1.68" fill="#5A5A5A"></circle><circle cx="59.64" cy="47.04" r="1.68" fill="#5A5A5A"></circle><circle cx="65.52" cy="47.04" r="1.68" fill="#5A5A5A"></circle><circle cx="71.4" cy="47.04" r="1.68" fill="#5A5A5A"></circle><circle cx="12.6" cy="52.08" r="1.68" fill="#5A5A5A"></circle><circle cx="24.36" cy="52.08" r="1.68" fill="#5A5A5A"></circle><circle cx="36.12" cy="52.08" r="1.68" fill="#5A5A5A"></circle><circle cx="47.88" cy="52.08" r="1.68" fill="#5A5A5A"></circle><circle cx="59.64" cy="52.08" r="1.68" fill="#5A5A5A"></circle><circle cx="71.4" cy="52.08" r="1.68" fill="#5A5A5A"></circle><circle cx="12.6" cy="57.12" r="1.68" fill="#5A5A5A"></circle><circle cx="18.48" cy="57.12" r="1.68" fill="#5A5A5A"></circle><circle cx="24.36" cy="57.12" r="1.68" fill="#5A5A5A"></circle><circle cx="30.24" cy="57.12" r="1.68" fill="#5A5A5A"></circle><circle cx="36.12" cy="57.12" r="1.68" fill="#5A5A5A"></circle><circle cx="42" cy="57.12" r="1.68" fill="#5A5A5A"></circle><circle cx="47.88" cy="57.12" r="1.68" fill="#5A5A5A"></circle><circle cx="53.76" cy="57.12" r="1.68" fill="#5A5A5A"></circle><circle cx="59.64" cy="57.12" r="1.68" fill="#5A5A5A"></circle><circle cx="65.52" cy="57.12" r="1.68" fill="#5A5A5A"></circle><circle cx="71.4" cy="57.12" r="1.68" fill="#5A5A5A"></circle><circle cx="12.6" cy="62.16" r="1.68" fill="#5A5A5A"></circle><circle cx="24.36" cy="62.16" r="1.68" fill="#5A5A5A"></circle><circle cx="36.12" cy="62.16" r="1.68" fill="#5A5A5A"></circle><circle cx="47.88" cy="62.16" r="1.68" fill="#5A5A5A"></circle><circle cx="59.64" cy="62.16" r="1.68" fill="#5A5A5A"></circle><circle cx="71.4" cy="62.16" r="1.68" fill="#5A5A5A"></circle><circle cx="12.6" cy="67.2" r="1.68" fill="#5A5A5A"></circle><circle cx="18.48" cy="67.2" r="1.68" fill="#5A5A5A"></circle><circle cx="24.36" cy="67.2" r="1.68" fill="#5A5A5A"></circle><circle cx="30.24" cy="67.2" r="1.68" fill="#5A5A5A"></circle><circle cx="36.12" cy="67.2" r="1.68" fill="#5A5A5A"></circle><circle cx="42" cy="67.2" r="1.68" fill="#5A5A5A"></circle><circle cx="47.88" cy="67.2" r="1.68" fill="#5A5A5A"></circle><circle cx="53.76" cy="67.2" r="1.68" fill="#5A5A5A"></circle><circle cx="59.64" cy="67.2" r="1.68" fill="#5A5A5A"></circle><circle cx="65.52" cy="67.2" r="1.68" fill="#5A5A5A"></circle><circle cx="71.4" cy="67.2" r="1.68" fill="#5A5A5A"></circle><circle cx="12.6" cy="72.24" r="1.68" fill="#5A5A5A"></circle><circle cx="24.36" cy="72.24" r="1.68" fill="#5A5A5A"></circle><circle cx="36.12" cy="72.24" r="1.68" fill="#5A5A5A"></circle><circle cx="47.88" cy="72.24" r="1.68" fill="#5A5A5A"></circle><circle cx="59.64" cy="72.24" r="1.68" fill="#5A5A5A"></circle><circle cx="71.4" cy="72.24" r="1.68" fill="#5A5A5A"></circle><g clip-path="url(#clip0_185_2942)" fill="#fff"><path d="M41.173 15.861c-.14.02-.52.09-.85.15-4.184.731-6.947 3.844-7.908 8.889-.08.42-.15.91-.15 1.08 0 .251-.06.361-.27.471-.38.19-.691.54-.881.981-.2.49-.21 2.152-.01 2.623.13.32.12.38-.1.82-.22.431-.24.591-.24 1.882 0 1.612.11 1.992.73 2.533.45.4.971.57 1.572.51l.47-.05.06 1.161c.03.641.15 1.512.27 1.952.39 1.522 1.362 3.093 2.493 4.044l.51.43V44.9l-.87.23c-1.942.51-6.026 1.902-7.488 2.553-1.1.49-2.222 1.24-2.772 1.851-.981 1.081-1.912 3.223-2.363 5.456-.25 1.22-1.571 11.14-1.49 11.22.09.09 1.21.22 1.28.15.03-.03.34-2.202.681-4.814.34-2.613.71-5.225.81-5.806.371-1.972.942-3.583 1.702-4.754.54-.811.821-1.051 1.932-1.652l.77-.42v6.106l-.26.06c-.46.12-1.48 1.23-1.751 1.911-.23.601-.24.631-.27 5.075l-.03 4.485.25.25.25.25h15.305c14.924 0 15.314 0 15.545-.19l.24-.19.03-3.844c.02-2.182-.02-4.194-.07-4.674-.17-1.402-.751-2.353-1.782-2.933l-.53-.3v-2.943c0-1.972.03-2.943.1-2.943.17 0 .89.39 1.511.81.921.621 1.622 1.762 2.242 3.624.49 1.482.6 2.092 1.352 7.758.38 2.832.7 5.154.72 5.174.04.04 1.281-.12 1.332-.17.03-.03-.891-7.026-1.252-9.589-.34-2.382-.79-3.894-1.631-5.545-.841-1.652-1.772-2.472-3.924-3.463-1.051-.48-4.574-1.702-6.526-2.263l-1.732-.49v-1.482l.74-.69c1.662-1.532 2.443-3.263 2.533-5.645l.06-1.322.56.05a2.08 2.08 0 0 0 1.963-1.01c.3-.491.3-.501.3-2.003 0-1.39-.02-1.541-.23-1.911-.22-.39-.23-.42-.07-1.001.38-1.462.03-2.943-.791-3.333-.32-.16-.3-.11-.46-1.222-.26-1.721-.921-3.613-1.762-5.024-.59-.981-2.122-2.563-2.973-3.073-.8-.47-2.072-.961-3.023-1.162-.76-.16-3.303-.29-3.854-.19zm1.001 4.104v2.773l-.41-.07c-.55-.09-1.121-.39-1.652-.881l-.44-.41.02-1.912.03-1.902.4-.09c.581-.13 1.352-.24 1.732-.26l.32-.01v2.762zm3.133-2.392l.671.17v3.634l-.46.43a3.41 3.41 0 0 1-1.612.85l-.33.07v-5.494l.53.08c.28.05.821.16 1.201.26zm-7.036 2.352v1.712l.32.5c.81 1.261 2.442 2.022 4.334 2.002 1.782-.01 3.323-.75 4.134-1.992l.32-.47v-3.183l.23.12c.12.06.601.51 1.072.98 1.24 1.262 2.012 2.723 2.502 4.816.17.69.39 2.252.4 2.772 0 .23.4.53.701.53.39 0 .5.23.5 1.042 0 .87-.05.96-.5.96s-.97.17-1.291.42c-.23.171-.63.181-8.478.181-5.896 0-8.258-.03-8.308-.11-.12-.2-.891-.49-1.321-.49-.36 0-.44-.04-.52-.26-.131-.331-.131-.892.01-1.372.09-.33.13-.37.43-.37.51 0 .68-.26.76-1.222.29-3.113 1.401-5.685 3.133-7.247.5-.45 1.342-1.03 1.502-1.04.04 0 .07.77.07 1.721zm-4.955 11.341c.24.23.25.3.25 1.451 0 1.071-.02 1.221-.2 1.402-.29.29-.72.3-1.021.03-.15-.14-.18-.35-.18-1.442 0-1.26 0-1.28.26-1.481.35-.27.59-.26.891.04zm19.418 0c.24.23.25.3.25 1.401 0 .64-.04 1.252-.1 1.352-.25.47-1.01.41-1.27-.1-.15-.3-.17-1.802-.03-2.313.16-.59.74-.76 1.15-.34zm-2.582 3.573c-.05 3.504-.07 3.644-.78 5.085-.591 1.181-1.622 2.212-2.793 2.783-1.302.64-1.752.72-4.004.72-2.232 0-2.803-.1-3.984-.67-1.131-.55-2.342-1.772-2.913-2.933-.64-1.311-.71-1.812-.71-5.185v-2.923h15.234l-.05 3.123zm-10.17 9.85c.64.13 1.232.15 2.973.12 2.032-.04 2.222-.06 2.953-.31.43-.15.8-.27.82-.27.03 0 .05.22.05.5 0 .5-.01.5-2.121 3.203-1.161 1.491-2.142 2.672-2.182 2.632-.04-.04-1.001-1.26-2.132-2.702l-2.072-2.623v-1.1l.45.19c.25.11.82.27 1.261.36zm-.07 4.854c1.432 1.812 2.623 3.294 2.653 3.294.03-.01 1.21-1.492 2.612-3.304 1.402-1.811 2.603-3.293 2.653-3.293.06 0 .75.19 1.551.42l1.452.421.03 3.984.02 3.974H34.167v-2.733c0-1.491.03-3.293.07-3.984l.06-1.261 1.411-.41c.781-.22 1.462-.4 1.512-.41.06 0 1.27 1.48 2.692 3.302zM33.106 56.3c.29.21 18.648.21 18.938 0 .18-.14.19-.33.24-4.444l.05-4.294 1.121.4 1.121.39.03 3.684c.03 4.144.01 3.994.801 4.204.51.14 1.061.64 1.321 1.2.2.431.21.652.24 4.325l.03 3.884H28.162v-3.734c0-4.194.04-4.474.64-5.095.19-.2.571-.44.832-.53.88-.32.83-.08.83-4.244v-3.674l1.181-.41 1.172-.4.05 4.294c.05 4.113.06 4.304.24 4.444z"></path><path d="M29.763 58.392v.65l1.881-.02 1.872-.03v-1.2l-1.871-.03-1.882-.02v.65zm21.82 0v.65h3.704v-1.3h-3.704v.65z"></path></g><defs><clipPath id="clip0_185_2942"><path fill="#fff" transform="translate(16 16)" d="M0 0h52v52H0z"></path></clipPath></defs></symbol></defs>
                    <use xlink:href="#i-special"></use>
                </svg>