<svg xmlns:xlink="http://www.w3.org/1999/xlink" xmlns="http://www.w3.org/2000/svg" class="advent__item-icon" width="111"  height="84" ><defs><symbol id="i-spare" viewBox="0 0 111 84"><path transform="rotate(-45 57.12 41.849)" fill="#EF1526" d="M57.12 41.849h37.8v37.8h-37.8z"></path><path fill="#343434" d="M0 0h84v84H0z"></path><circle cx="12.6" cy="11.76" r="1.68" fill="#5A5A5A"></circle><circle cx="24.36" cy="11.76" r="1.68" fill="#5A5A5A"></circle><circle cx="36.12" cy="11.76" r="1.68" fill="#5A5A5A"></circle><circle cx="47.88" cy="11.76" r="1.68" fill="#5A5A5A"></circle><circle cx="59.64" cy="11.76" r="1.68" fill="#5A5A5A"></circle><circle cx="71.4" cy="11.76" r="1.68" fill="#5A5A5A"></circle><circle cx="12.6" cy="16.8" r="1.68" fill="#5A5A5A"></circle><circle cx="18.48" cy="16.8" r="1.68" fill="#5A5A5A"></circle><circle cx="24.36" cy="16.8" r="1.68" fill="#5A5A5A"></circle><circle cx="30.24" cy="16.8" r="1.68" fill="#5A5A5A"></circle><circle cx="36.12" cy="16.8" r="1.68" fill="#5A5A5A"></circle><circle cx="42" cy="16.8" r="1.68" fill="#5A5A5A"></circle><circle cx="47.88" cy="16.8" r="1.68" fill="#5A5A5A"></circle><circle cx="53.76" cy="16.8" r="1.68" fill="#5A5A5A"></circle><circle cx="59.64" cy="16.8" r="1.68" fill="#5A5A5A"></circle><circle cx="65.52" cy="16.8" r="1.68" fill="#5A5A5A"></circle><circle cx="71.4" cy="16.8" r="1.68" fill="#5A5A5A"></circle><circle cx="12.6" cy="21.84" r="1.68" fill="#5A5A5A"></circle><circle cx="24.36" cy="21.84" r="1.68" fill="#5A5A5A"></circle><circle cx="36.12" cy="21.84" r="1.68" fill="#5A5A5A"></circle><circle cx="47.88" cy="21.84" r="1.68" fill="#5A5A5A"></circle><circle cx="59.64" cy="21.84" r="1.68" fill="#5A5A5A"></circle><circle cx="71.4" cy="21.84" r="1.68" fill="#5A5A5A"></circle><circle cx="12.6" cy="26.88" r="1.68" fill="#5A5A5A"></circle><circle cx="18.48" cy="26.88" r="1.68" fill="#5A5A5A"></circle><circle cx="24.36" cy="26.88" r="1.68" fill="#5A5A5A"></circle><circle cx="30.24" cy="26.88" r="1.68" fill="#5A5A5A"></circle><circle cx="36.12" cy="26.88" r="1.68" fill="#5A5A5A"></circle><circle cx="42" cy="26.88" r="1.68" fill="#5A5A5A"></circle><circle cx="47.88" cy="26.88" r="1.68" fill="#5A5A5A"></circle><circle cx="53.76" cy="26.88" r="1.68" fill="#5A5A5A"></circle><circle cx="59.64" cy="26.88" r="1.68" fill="#5A5A5A"></circle><circle cx="65.52" cy="26.88" r="1.68" fill="#5A5A5A"></circle><circle cx="71.4" cy="26.88" r="1.68" fill="#5A5A5A"></circle><circle cx="12.6" cy="31.92" r="1.68" fill="#5A5A5A"></circle><circle cx="24.36" cy="31.92" r="1.68" fill="#5A5A5A"></circle><circle cx="36.12" cy="31.92" r="1.68" fill="#5A5A5A"></circle><circle cx="47.88" cy="31.92" r="1.68" fill="#5A5A5A"></circle><circle cx="59.64" cy="31.92" r="1.68" fill="#5A5A5A"></circle><circle cx="71.4" cy="31.92" r="1.68" fill="#5A5A5A"></circle><circle cx="12.6" cy="36.96" r="1.68" fill="#5A5A5A"></circle><circle cx="18.48" cy="36.96" r="1.68" fill="#5A5A5A"></circle><circle cx="24.36" cy="36.96" r="1.68" fill="#5A5A5A"></circle><circle cx="30.24" cy="36.96" r="1.68" fill="#5A5A5A"></circle><circle cx="36.12" cy="36.96" r="1.68" fill="#5A5A5A"></circle><circle cx="42" cy="36.96" r="1.68" fill="#5A5A5A"></circle><circle cx="47.88" cy="36.96" r="1.68" fill="#5A5A5A"></circle><circle cx="53.76" cy="36.96" r="1.68" fill="#5A5A5A"></circle><circle cx="59.64" cy="36.96" r="1.68" fill="#5A5A5A"></circle><circle cx="65.52" cy="36.96" r="1.68" fill="#5A5A5A"></circle><circle cx="71.4" cy="36.96" r="1.68" fill="#5A5A5A"></circle><circle cx="12.6" cy="42" r="1.68" fill="#5A5A5A"></circle><circle cx="24.36" cy="42" r="1.68" fill="#5A5A5A"></circle><circle cx="36.12" cy="42" r="1.68" fill="#5A5A5A"></circle><circle cx="47.88" cy="42" r="1.68" fill="#5A5A5A"></circle><circle cx="59.64" cy="42" r="1.68" fill="#5A5A5A"></circle><circle cx="71.4" cy="42" r="1.68" fill="#5A5A5A"></circle><circle cx="12.6" cy="47.04" r="1.68" fill="#5A5A5A"></circle><circle cx="18.48" cy="47.04" r="1.68" fill="#5A5A5A"></circle><circle cx="24.36" cy="47.04" r="1.68" fill="#5A5A5A"></circle><circle cx="30.24" cy="47.04" r="1.68" fill="#5A5A5A"></circle><circle cx="36.12" cy="47.04" r="1.68" fill="#5A5A5A"></circle><circle cx="42" cy="47.04" r="1.68" fill="#5A5A5A"></circle><circle cx="47.88" cy="47.04" r="1.68" fill="#5A5A5A"></circle><circle cx="53.76" cy="47.04" r="1.68" fill="#5A5A5A"></circle><circle cx="59.64" cy="47.04" r="1.68" fill="#5A5A5A"></circle><circle cx="65.52" cy="47.04" r="1.68" fill="#5A5A5A"></circle><circle cx="71.4" cy="47.04" r="1.68" fill="#5A5A5A"></circle><circle cx="12.6" cy="52.08" r="1.68" fill="#5A5A5A"></circle><circle cx="24.36" cy="52.08" r="1.68" fill="#5A5A5A"></circle><circle cx="36.12" cy="52.08" r="1.68" fill="#5A5A5A"></circle><circle cx="47.88" cy="52.08" r="1.68" fill="#5A5A5A"></circle><circle cx="59.64" cy="52.08" r="1.68" fill="#5A5A5A"></circle><circle cx="71.4" cy="52.08" r="1.68" fill="#5A5A5A"></circle><circle cx="12.6" cy="57.12" r="1.68" fill="#5A5A5A"></circle><circle cx="18.48" cy="57.12" r="1.68" fill="#5A5A5A"></circle><circle cx="24.36" cy="57.12" r="1.68" fill="#5A5A5A"></circle><circle cx="30.24" cy="57.12" r="1.68" fill="#5A5A5A"></circle><circle cx="36.12" cy="57.12" r="1.68" fill="#5A5A5A"></circle><circle cx="42" cy="57.12" r="1.68" fill="#5A5A5A"></circle><circle cx="47.88" cy="57.12" r="1.68" fill="#5A5A5A"></circle><circle cx="53.76" cy="57.12" r="1.68" fill="#5A5A5A"></circle><circle cx="59.64" cy="57.12" r="1.68" fill="#5A5A5A"></circle><circle cx="65.52" cy="57.12" r="1.68" fill="#5A5A5A"></circle><circle cx="71.4" cy="57.12" r="1.68" fill="#5A5A5A"></circle><circle cx="12.6" cy="62.16" r="1.68" fill="#5A5A5A"></circle><circle cx="24.36" cy="62.16" r="1.68" fill="#5A5A5A"></circle><circle cx="36.12" cy="62.16" r="1.68" fill="#5A5A5A"></circle><circle cx="47.88" cy="62.16" r="1.68" fill="#5A5A5A"></circle><circle cx="59.64" cy="62.16" r="1.68" fill="#5A5A5A"></circle><circle cx="71.4" cy="62.16" r="1.68" fill="#5A5A5A"></circle><circle cx="12.6" cy="67.2" r="1.68" fill="#5A5A5A"></circle><circle cx="18.48" cy="67.2" r="1.68" fill="#5A5A5A"></circle><circle cx="24.36" cy="67.2" r="1.68" fill="#5A5A5A"></circle><circle cx="30.24" cy="67.2" r="1.68" fill="#5A5A5A"></circle><circle cx="36.12" cy="67.2" r="1.68" fill="#5A5A5A"></circle><circle cx="42" cy="67.2" r="1.68" fill="#5A5A5A"></circle><circle cx="47.88" cy="67.2" r="1.68" fill="#5A5A5A"></circle><circle cx="53.76" cy="67.2" r="1.68" fill="#5A5A5A"></circle><circle cx="59.64" cy="67.2" r="1.68" fill="#5A5A5A"></circle><circle cx="65.52" cy="67.2" r="1.68" fill="#5A5A5A"></circle><circle cx="71.4" cy="67.2" r="1.68" fill="#5A5A5A"></circle><circle cx="12.6" cy="72.24" r="1.68" fill="#5A5A5A"></circle><circle cx="24.36" cy="72.24" r="1.68" fill="#5A5A5A"></circle><circle cx="36.12" cy="72.24" r="1.68" fill="#5A5A5A"></circle><circle cx="47.88" cy="72.24" r="1.68" fill="#5A5A5A"></circle><circle cx="59.64" cy="72.24" r="1.68" fill="#5A5A5A"></circle><circle cx="71.4" cy="72.24" r="1.68" fill="#5A5A5A"></circle><path d="M23.254 18.032c-1.677.352-2.862.993-4.069 2.19-1.634 1.612-2.328 3.182-2.413 5.392-.043 1.058-.022 1.442.17 2.221.705 2.948 2.916 5.212 5.895 6.013.855.235 2.895.256 3.717.053l.566-.15 11.64 11.641 11.64 11.64-.128.63c-.192.908-.17 2.627.054 3.514.63 2.563 2.477 4.699 4.859 5.638 1.206.47 1.612.545 2.99.545 1.057 0 1.506-.043 2.168-.235a8.18 8.18 0 0 0 5.382-4.827c.833-2.082.726-4.602-.288-6.62-1.015-2.009-3.001-3.6-5.201-4.176-.993-.267-2.766-.31-3.695-.096l-.62.149-11.65-11.662-11.662-11.65.15-.62c.192-.822.17-2.584-.043-3.482-.641-2.733-2.67-4.933-5.361-5.841-.887-.288-1.25-.352-2.232-.384-.737-.022-1.431.02-1.87.117zm2.937 1.709c2.264.47 4.218 2.36 4.816 4.656.246.929.224 2.403-.043 3.364-.17.651-.181.811-.074 1.068.181.416 24.166 24.348 24.53 24.487.213.085.405.075.715-.043.822-.288 2.061-.406 2.894-.277 1.613.256 2.734.833 3.802 1.965 1.25 1.313 1.815 2.84 1.72 4.666-.129 2.68-1.773 4.87-4.347 5.778-1.004.352-2.948.363-3.951.01-2.435-.843-4.048-2.819-4.39-5.36-.096-.673-.074-.994.065-1.773.106-.523.202-1.132.234-1.356l.054-.395-12.1-12.196c-7.005-7.048-12.249-12.239-12.44-12.324-.29-.117-.417-.107-1.015.085-.513.171-.972.225-1.859.225-1.014.01-1.292-.032-2.029-.289-2.06-.715-3.556-2.285-4.175-4.389-.3-1.003-.256-2.563.107-3.61 1.078-3.192 4.197-4.976 7.486-4.292z" fill="#fff"></path><path d="M22.442 23.5c-.672.694-1.25 1.366-1.281 1.505-.096.342.705 3.321.972 3.62.288.331 3.32 1.154 3.695 1.004.299-.117 2.595-2.435 2.69-2.712.086-.225-.704-3.204-.939-3.556-.085-.129-.235-.267-.342-.3-.865-.266-3.097-.811-3.31-.811-.203 0-.566.299-1.485 1.25zm3.76 1.131c.031.022.16.46.298.962l.246.918-.705.694-.705.694-.95-.235-.95-.245-.257-.94-.256-.95.715-.727.705-.715.908.245c.502.14.929.278.95.3zM55.42 56.563c-1.271 1.281-1.517 1.57-1.517 1.836 0 .182.214 1.111.48 2.083.342 1.27.545 1.815.716 1.986.3.278 3.748 1.217 4.165 1.143.363-.064 3.29-3.012 3.29-3.3-.012-.46-1.058-3.92-1.25-4.1-.203-.215-3.567-1.176-4.069-1.176-.235 0-.587.3-1.816 1.528zm3.438.608c.641.171 1.175.331 1.186.342.01.021.17.587.341 1.26l.331 1.228-.907.919-.908.929-1.25-.331c-.683-.182-1.249-.331-1.26-.342-.01 0-.17-.577-.363-1.26l-.352-1.26.907-.908c.492-.491.94-.897 1.004-.897.054 0 .63.15 1.271.32zm-3.022-38.99c-.427.107-1.25.428-1.816.705-.875.438-1.174.662-2.05 1.538-.876.876-1.1 1.175-1.516 2.04-.278.555-.598 1.399-.716 1.858-.267 1.057-.288 2.755-.042 3.823l.17.758-3.235 3.236c-3.012 3.012-3.236 3.268-3.236 3.61 0 .662.566 1.025 1.185.747.16-.064 1.837-1.666 3.706-3.545 3.855-3.877 3.599-3.46 3.182-4.977-.822-3 .588-6.15 3.407-7.593.705-.363 1.783-.694 2.242-.694.203 0-.01.257-1.11 1.367-.918.93-1.356 1.453-1.356 1.613 0 .267 1.25 4.987 1.399 5.254.042.096.224.224.384.288.63.257 4.71 1.303 5.062 1.303.32 0 .502-.15 1.666-1.303 1.442-1.441 1.484-1.441 1.153-.15-.373 1.442-1.516 3.012-2.808 3.867-.331.224-1.015.544-1.517.726-.8.277-1.046.32-2.082.31-.897 0-1.335-.054-1.87-.225-1.27-.416-.917-.662-4.89 3.321-3.204 3.215-3.546 3.589-3.546 3.898 0 .47.406.876.876.876.31 0 .662-.32 3.61-3.246l3.257-3.258.64.16c.972.246 2.905.225 3.941-.053 2.82-.747 4.998-2.798 5.895-5.532.288-.875.31-1.057.31-2.616 0-1.623-.01-1.677-.257-1.944a.793.793 0 0 0-.64-.277c-.353 0-.524.15-2.2 1.815l-1.816 1.816-1.869-.513-1.858-.502-.523-1.858-.523-1.858 1.88-1.88c1.035-1.046 1.879-1.975 1.879-2.082 0-.278-.288-.78-.502-.865-.107-.054-.844-.107-1.634-.118-1.143-.032-1.602 0-2.232.16zM30.804 47.955c-3.46 3.45-3.556 3.524-3.866 3.439-1.847-.535-4.432-.171-6.215.875-.865.513-2.264 1.922-2.787 2.82-2.2 3.77-1.1 8.543 2.53 10.892 3.386 2.19 7.711 1.623 10.424-1.356 1.676-1.847 2.413-4.507 1.932-6.92l-.181-.897 3.47-3.47c3.087-3.087 3.482-3.525 3.482-3.813 0-.502-.32-.833-.79-.833-.374 0-.566.17-3.642 3.246-1.783 1.783-3.268 3.225-3.289 3.204a7.333 7.333 0 0 0-.331-.523c-.46-.716-1.11-1.378-1.901-1.933l-.705-.502 3.247-3.247c2.883-2.883 3.246-3.278 3.246-3.577 0-.438-.288-.77-.726-.855-.352-.074-.416-.01-3.898 3.45zM26.5 53.07c2.19.566 4.026 2.403 4.592 4.603.203.758.225 2.125.054 2.937-.214 1.068-.897 2.285-1.74 3.118-.877.876-1.73 1.367-2.906 1.666a6.335 6.335 0 0 1-6.824-2.563c-1.751-2.574-1.42-5.938.801-8.127.78-.769 1.901-1.41 2.905-1.655.801-.193 2.328-.182 3.118.021z" fill="#fff"></path><path d="M23.628 55.43c-.94.257-1.784.556-1.89.652-.203.203-1.154 3.673-1.154 4.197 0 .31.182.533 1.474 1.826 1.399 1.399 1.495 1.473 1.89 1.473.64 0 3.877-.897 4.111-1.132.225-.224 1.175-3.599 1.175-4.154 0-.267-.245-.577-1.463-1.847l-1.474-1.527-.48.02c-.267.012-1.25.225-2.19.492zm2.936 2.221l.908.908-.32 1.239c-.192.737-.385 1.27-.48 1.324-.086.043-.684.214-1.314.374l-1.154.299-.929-.919-.918-.918.299-1.153c.16-.63.342-1.228.384-1.314.086-.139 1.955-.726 2.403-.737.139-.01.555.331 1.121.897z" fill="#fff"></path></symbol></defs>
                     <use xlink:href="#i-spare"></use>
                 </svg>